<?xml version="1.0" encoding="utf-8"?>
<!-- Generator: Adobe Illustrator 18.0.0, SVG Export Plug-In . SVG Version: 6.00 Build 0)  -->
<!DOCTYPE svg PUBLIC "-//W3C//DTD SVG 1.1//EN" "http://www.w3.org/Graphics/SVG/1.1/DTD/svg11.dtd">
<svg version="1.1" id="Layer_1" xmlns="http://www.w3.org/2000/svg" xmlns:xlink="http://www.w3.org/1999/xlink" x="0px" y="0px"
	 viewBox="0 0 568 94.6" enable-background="new 0 0 568 94.6" xml:space="preserve">
<g>
	<path fill="#B9B8B8" d="M179.7,1.6h-66.1V11c22,0,44.1,0,66.1,0V1.6z"/>
	<path fill-rule="evenodd" clip-rule="evenodd" fill="#1E2C5D" d="M82,93.1h11.1L51.4,0.9L41.1,0.9C54.7,31.7,68.3,62.3,82,93.1
		L82,93.1z M238.2,11.1h30.7V1.6H197v9.5h30.7v82h10.5V11.1L238.2,11.1z M353.8,51.9v41.2h10.3V1.6h-10.3v40.7H301V1.6h-10.3v91.5
		H301V51.9H353.8L353.8,51.9z M481.7,47.2c0-6.4-1.1-12.4-3.3-18.1c-2.2-5.7-5.4-10.7-9.5-15c-4.1-4.3-9-7.7-14.7-10.3
		c-5.7-2.5-12-3.8-19-3.8c-7,0-13.3,1.3-19.1,3.9c-5.8,2.6-10.7,6-14.8,10.4c-4.1,4.4-7.3,9.4-9.5,15.1c-2.3,5.7-3.4,11.7-3.4,18.1
		s1.1,12.4,3.3,18.1c2.2,5.7,5.4,10.7,9.5,15c4.1,4.3,9,7.7,14.7,10.3c5.7,2.5,12,3.8,19,3.8c7,0,13.3-1.3,19.1-3.9
		c5.8-2.6,10.7-6,14.8-10.4c4.1-4.4,7.3-9.4,9.5-15.1C480.6,59.6,481.7,53.6,481.7,47.2L481.7,47.2z M471,47.4
		c0,5.2-0.9,10.1-2.7,14.7c-1.8,4.6-4.2,8.6-7.4,12c-3.1,3.4-6.9,6.1-11.3,8c-4.4,2-9.2,2.9-14.4,2.9c-5.2,0-10-1-14.4-3
		c-4.4-2-8.2-4.7-11.4-8.1c-3.2-3.4-5.7-7.4-7.5-12c-1.8-4.6-2.7-9.5-2.7-14.8c0-5.2,0.9-10.1,2.7-14.7c1.8-4.6,4.2-8.6,7.4-12
		c3.1-3.4,6.9-6.1,11.3-8c4.4-2,9.2-2.9,14.4-2.9c5.2,0,10,1,14.4,3c4.4,2,8.2,4.7,11.4,8.1c3.2,3.4,5.7,7.4,7.5,12
		C470.1,37.3,471,42.2,471,47.4L471,47.4z M513.3,24.4c0-2.1,0.5-4.1,1.4-5.9c0.9-1.8,2.2-3.4,3.9-4.7c1.7-1.3,3.7-2.4,6.1-3.1
		c2.4-0.8,5.1-1.2,8-1.2c4.7,0,9.2,0.8,13.5,2.4c4.3,1.6,8.6,4.1,12.9,7.6l6-8c-4.7-3.7-9.6-6.6-14.6-8.4c-5-1.9-10.9-2.8-17.6-2.8
		c-4.4,0-8.4,0.6-12,1.9c-3.7,1.3-6.8,3-9.5,5.2c-2.7,2.2-4.8,4.9-6.3,7.9c-1.5,3.1-2.2,6.4-2.2,10.1c0,3.8,0.6,7.1,1.8,9.9
		c1.2,2.8,3.1,5.2,5.6,7.3c2.5,2.1,5.7,3.9,9.6,5.4c3.9,1.5,8.4,2.8,13.7,3.9c4.8,1,8.7,2.1,11.8,3.3c3.1,1.1,5.5,2.4,7.3,3.8
		c1.7,1.4,3,2.9,3.7,4.6c0.7,1.7,1,3.6,1,5.8c0,4.7-1.8,8.5-5.6,11.4c-3.7,2.9-8.6,4.3-14.8,4.3c-6.4,0-12-1.1-16.9-3.2
		c-4.9-2.1-9.7-5.4-14.5-9.7l-6.4,7.6c5.5,5,11.3,8.6,17.3,11c6.1,2.4,12.7,3.6,20.1,3.6c4.5,0,8.7-0.6,12.5-1.8
		c3.8-1.2,7.1-3,9.9-5.2c2.7-2.3,4.9-5,6.5-8.2c1.6-3.2,2.4-6.8,2.4-10.7c0-7.1-2.4-12.6-7.3-16.6c-4.8-4-12.4-7.1-22.5-9.4
		c-5.1-1-9.2-2.2-12.4-3.3c-3.2-1.2-5.8-2.5-7.6-3.9c-1.8-1.4-3.1-3-3.8-4.8C513.7,28.6,513.3,26.6,513.3,24.4L513.3,24.4z
		 M113.5,42.2v50.9h66.8v-9.4h-56.5v-32h49.9v-9.4C153.7,42.2,133.6,42.2,113.5,42.2z"/>
	<path fill-rule="evenodd" clip-rule="evenodd" fill="#B9B8B8" d="M15.2,59.5L0,93.1h10.6l10.8-24.2h38.9l-4.1-9.3
		C42.6,59.6,28.9,59.5,15.2,59.5z"/>
</g>
</svg>
